<?xml version="1.0" encoding="utf-8"?>
<svg xmlns:xsi="http://www.w3.org/2001/XMLSchema-instance" xmlns:xsd="http://www.w3.org/2001/XMLSchema" width="2000" height="500" xmlns="http://www.w3.org/2000/svg">
  <line x1="0" y1="50" x2="2000" y2="50" stroke="gray">
    <GroupingLayer>0</GroupingLayer>
  </line>
  <line x1="0" y1="200" x2="2000" y2="200" stroke="gray">
    <GroupingLayer>0</GroupingLayer>
  </line>
  <line x1="0" y1="350" x2="2000" y2="350" stroke="gray">
    <GroupingLayer>0</GroupingLayer>
  </line>
  <line x1="0" y1="500" x2="2000" y2="500" stroke="gray">
    <GroupingLayer>0</GroupingLayer>
  </line>
  <line x1="264" y1="50" x2="264" y2="550" stroke="gray">
    <GroupingLayer>0</GroupingLayer>
  </line>
  <line x1="388" y1="50" x2="388" y2="550" stroke="gray">
    <GroupingLayer>0</GroupingLayer>
  </line>
  <line x1="512" y1="50" x2="512" y2="550" stroke="gray">
    <GroupingLayer>0</GroupingLayer>
  </line>
  <line x1="636" y1="50" x2="636" y2="550" stroke="gray">
    <GroupingLayer>0</GroupingLayer>
  </line>
  <line x1="760" y1="50" x2="760" y2="550" stroke="gray">
    <GroupingLayer>0</GroupingLayer>
  </line>
  <line x1="884" y1="50" x2="884" y2="550" stroke="gray">
    <GroupingLayer>0</GroupingLayer>
  </line>
  <line x1="1008" y1="50" x2="1008" y2="550" stroke="gray">
    <GroupingLayer>0</GroupingLayer>
  </line>
  <line x1="1132" y1="50" x2="1132" y2="550" stroke="gray">
    <GroupingLayer>0</GroupingLayer>
  </line>
  <line x1="1256" y1="50" x2="1256" y2="550" stroke="gray">
    <GroupingLayer>0</GroupingLayer>
  </line>
  <line x1="1380" y1="50" x2="1380" y2="550" stroke="gray">
    <GroupingLayer>0</GroupingLayer>
  </line>
  <line x1="1504" y1="50" x2="1504" y2="550" stroke="gray">
    <GroupingLayer>0</GroupingLayer>
  </line>
  <line x1="1628" y1="50" x2="1628" y2="550" stroke="gray">
    <GroupingLayer>0</GroupingLayer>
  </line>
  <line x1="1752" y1="50" x2="1752" y2="550" stroke="gray">
    <GroupingLayer>0</GroupingLayer>
  </line>
  <line x1="1876" y1="50" x2="1876" y2="550" stroke="gray">
    <GroupingLayer>0</GroupingLayer>
  </line>
  <rect x="0" y="50" rx="0" ry="0" width="192" height="40" fill="none" stroke="none">
    <GroupingLayer>0</GroupingLayer>
  </rect>
  <rect x="0" y="200" rx="0" ry="0" width="192" height="40" fill="none" stroke="none">
    <GroupingLayer>0</GroupingLayer>
  </rect>
  <rect x="0" y="350" rx="0" ry="0" width="240" height="40" fill="none" stroke="none">
    <GroupingLayer>0</GroupingLayer>
  </rect>
  <rect x="314" y="0" rx="0" ry="0" width="124" height="50" fill="none" stroke="none">
    <GroupingLayer>0</GroupingLayer>
  </rect>
  <rect x="438" y="0" rx="0" ry="0" width="124" height="50" fill="none" stroke="none">
    <GroupingLayer>0</GroupingLayer>
  </rect>
  <rect x="562" y="0" rx="0" ry="0" width="124" height="50" fill="none" stroke="none">
    <GroupingLayer>0</GroupingLayer>
  </rect>
  <rect x="686" y="0" rx="0" ry="0" width="124" height="50" fill="none" stroke="none">
    <GroupingLayer>0</GroupingLayer>
  </rect>
  <rect x="810" y="0" rx="0" ry="0" width="124" height="50" fill="none" stroke="none">
    <GroupingLayer>0</GroupingLayer>
  </rect>
  <rect x="934" y="0" rx="0" ry="0" width="124" height="50" fill="none" stroke="none">
    <GroupingLayer>0</GroupingLayer>
  </rect>
  <rect x="1058" y="0" rx="0" ry="0" width="124" height="50" fill="none" stroke="none">
    <GroupingLayer>0</GroupingLayer>
  </rect>
  <rect x="1182" y="0" rx="0" ry="0" width="124" height="50" fill="none" stroke="none">
    <GroupingLayer>0</GroupingLayer>
  </rect>
  <rect x="1306" y="0" rx="0" ry="0" width="124" height="50" fill="none" stroke="none">
    <GroupingLayer>0</GroupingLayer>
  </rect>
  <rect x="1430" y="0" rx="0" ry="0" width="124" height="50" fill="none" stroke="none">
    <GroupingLayer>0</GroupingLayer>
  </rect>
  <rect x="1554" y="0" rx="0" ry="0" width="124" height="50" fill="none" stroke="none">
    <GroupingLayer>0</GroupingLayer>
  </rect>
  <rect x="1678" y="0" rx="0" ry="0" width="124" height="50" fill="none" stroke="none">
    <GroupingLayer>0</GroupingLayer>
  </rect>
  <rect x="1802" y="0" rx="0" ry="0" width="124" height="50" fill="none" stroke="none">
    <GroupingLayer>0</GroupingLayer>
  </rect>
  <rect x="1926" y="0" rx="0" ry="0" width="124" height="50" fill="none" stroke="none">
    <GroupingLayer>0</GroupingLayer>
  </rect>
  <rect x="0" y="0" rx="0" ry="0" width="264" height="48" fill="none" stroke="none">
    <GroupingLayer>2</GroupingLayer>
  </rect>
  <rect x="264" y="75" rx="0" ry="0" width="124" height="100" fill="#BAE1FF" stroke="none">
    <GroupingLayer>4</GroupingLayer>
  </rect>
  <rect x="388" y="75" rx="0" ry="0" width="124" height="100" fill="#BAE1FF" stroke="none">
    <GroupingLayer>4</GroupingLayer>
  </rect>
  <rect x="512" y="75" rx="0" ry="0" width="124" height="100" fill="#BAE1FF" stroke="none">
    <GroupingLayer>4</GroupingLayer>
  </rect>
  <rect x="636" y="75" rx="0" ry="0" width="124" height="100" fill="#BAE1FF" stroke="none">
    <GroupingLayer>4</GroupingLayer>
  </rect>
  <rect x="760" y="75" rx="0" ry="0" width="124" height="100" fill="#BAE1FF" stroke="none">
    <GroupingLayer>4</GroupingLayer>
  </rect>
  <rect x="884" y="75" rx="0" ry="0" width="124" height="100" fill="#BAE1FF" stroke="none">
    <GroupingLayer>4</GroupingLayer>
  </rect>
  <rect x="1008" y="75" rx="0" ry="0" width="124" height="100" fill="#BAE1FF" stroke="none">
    <GroupingLayer>4</GroupingLayer>
  </rect>
  <rect x="1132" y="225" rx="0" ry="0" width="124" height="100" fill="#CBAACB" stroke="none">
    <GroupingLayer>4</GroupingLayer>
  </rect>
  <rect x="1256" y="225" rx="0" ry="0" width="124" height="100" fill="#CBAACB" stroke="none">
    <GroupingLayer>4</GroupingLayer>
  </rect>
  <rect x="1380" y="375" rx="0" ry="0" width="124" height="100" fill="#BAE1FF" stroke="none">
    <GroupingLayer>4</GroupingLayer>
  </rect>
  <rect x="1504" y="375" rx="0" ry="0" width="124" height="100" fill="#BAE1FF" stroke="none">
    <GroupingLayer>4</GroupingLayer>
  </rect>
  <rect x="1628" y="375" rx="0" ry="0" width="124" height="100" fill="#BAE1FF" stroke="none">
    <GroupingLayer>4</GroupingLayer>
  </rect>
  <rect x="1752" y="375" rx="0" ry="0" width="124" height="100" fill="#BAE1FF" stroke="none">
    <GroupingLayer>4</GroupingLayer>
  </rect>
  <rect x="1876" y="375" rx="0" ry="0" width="124" height="100" fill="#BAE1FF" stroke="none">
    <GroupingLayer>4</GroupingLayer>
  </rect>
  <text x="0" y="56" font-family="JetBrains Mono" font-size="40" fill="black" dominant-baseline="hanging" text-anchor="start">Task One<GroupingLayer>0</GroupingLayer></text>
  <text x="0" y="206" font-family="JetBrains Mono" font-size="40" fill="black" dominant-baseline="hanging" text-anchor="start">Task Two<GroupingLayer>0</GroupingLayer></text>
  <text x="0" y="356" font-family="JetBrains Mono" font-size="40" fill="black" dominant-baseline="hanging" text-anchor="start">Task Three<GroupingLayer>0</GroupingLayer></text>
  <text x="314" y="6" font-family="JetBrains Mono" font-size="40" fill="black" dominant-baseline="hanging" text-anchor="start">1<GroupingLayer>0</GroupingLayer></text>
  <text x="438" y="6" font-family="JetBrains Mono" font-size="40" fill="black" dominant-baseline="hanging" text-anchor="start">2<GroupingLayer>0</GroupingLayer></text>
  <text x="562" y="6" font-family="JetBrains Mono" font-size="40" fill="black" dominant-baseline="hanging" text-anchor="start">3<GroupingLayer>0</GroupingLayer></text>
  <text x="686" y="6" font-family="JetBrains Mono" font-size="40" fill="black" dominant-baseline="hanging" text-anchor="start">4<GroupingLayer>0</GroupingLayer></text>
  <text x="810" y="6" font-family="JetBrains Mono" font-size="40" fill="black" dominant-baseline="hanging" text-anchor="start">5<GroupingLayer>0</GroupingLayer></text>
  <text x="934" y="6" font-family="JetBrains Mono" font-size="40" fill="black" dominant-baseline="hanging" text-anchor="start">6<GroupingLayer>0</GroupingLayer></text>
  <text x="1058" y="6" font-family="JetBrains Mono" font-size="40" fill="black" dominant-baseline="hanging" text-anchor="start">7<GroupingLayer>0</GroupingLayer></text>
  <text x="1182" y="6" font-family="JetBrains Mono" font-size="40" fill="black" dominant-baseline="hanging" text-anchor="start">8<GroupingLayer>0</GroupingLayer></text>
  <text x="1306" y="6" font-family="JetBrains Mono" font-size="40" fill="black" dominant-baseline="hanging" text-anchor="start">9<GroupingLayer>0</GroupingLayer></text>
  <text x="1430" y="6" font-family="JetBrains Mono" font-size="40" fill="black" dominant-baseline="hanging" text-anchor="start">10<GroupingLayer>0</GroupingLayer></text>
  <text x="1554" y="6" font-family="JetBrains Mono" font-size="40" fill="black" dominant-baseline="hanging" text-anchor="start">11<GroupingLayer>0</GroupingLayer></text>
  <text x="1678" y="6" font-family="JetBrains Mono" font-size="40" fill="black" dominant-baseline="hanging" text-anchor="start">12<GroupingLayer>0</GroupingLayer></text>
  <text x="1802" y="6" font-family="JetBrains Mono" font-size="40" fill="black" dominant-baseline="hanging" text-anchor="start">13<GroupingLayer>0</GroupingLayer></text>
  <text x="1926" y="6" font-family="JetBrains Mono" font-size="40" fill="black" dominant-baseline="hanging" text-anchor="start">14<GroupingLayer>0</GroupingLayer></text>
  <text x="0" y="6" font-family="JetBrains Mono" font-size="40" fill="black" dominant-baseline="hanging" text-anchor="start">Gantt Chart<GroupingLayer>2</GroupingLayer></text>
</svg>