<?xml version="1.0" encoding="utf-8"?>
<svg xmlns:xsi="http://www.w3.org/2001/XMLSchema-instance" xmlns:xsd="http://www.w3.org/2001/XMLSchema" width="2000" height="500" xmlns="http://www.w3.org/2000/svg">
  <rect x="0" y="0" rx="0" ry="0" width="2000" height="500" fill="none" stroke="black" />
  <rect x="240" y="50" rx="0" ry="0" width="88" height="112" fill="darkorchid" stroke="none" />
  <rect x="328" y="162" rx="0" ry="0" width="88" height="112" fill="dodgerblue" stroke="none" />
  <rect x="416" y="274" rx="0" ry="0" width="88" height="112" fill="cyan" stroke="none" />
  <rect x="504" y="386" rx="0" ry="0" width="88" height="112" fill="hotpink" stroke="none" />
  <rect x="592" y="386" rx="0" ry="0" width="88" height="112" fill="hotpink" stroke="none" />
  <rect x="680" y="386" rx="0" ry="0" width="88" height="112" fill="hotpink" stroke="none" />
  <rect x="768" y="386" rx="0" ry="0" width="88" height="112" fill="hotpink" stroke="none" />
  <rect x="0" y="50" rx="0" ry="0" width="192" height="40" fill="none" stroke="none" />
  <rect x="0" y="162" rx="0" ry="0" width="192" height="40" fill="none" stroke="none" />
  <rect x="0" y="274" rx="0" ry="0" width="240" height="40" fill="none" stroke="none" />
  <rect x="0" y="386" rx="0" ry="0" width="216" height="40" fill="none" stroke="none" />
  <rect x="240" y="0" rx="0" ry="0" width="88" height="50" fill="none" stroke="none" />
  <rect x="328" y="0" rx="0" ry="0" width="88" height="50" fill="none" stroke="none" />
  <rect x="416" y="0" rx="0" ry="0" width="88" height="50" fill="none" stroke="none" />
  <rect x="504" y="0" rx="0" ry="0" width="88" height="50" fill="none" stroke="none" />
  <rect x="592" y="0" rx="0" ry="0" width="88" height="50" fill="none" stroke="none" />
  <rect x="680" y="0" rx="0" ry="0" width="88" height="50" fill="none" stroke="none" />
  <rect x="768" y="0" rx="0" ry="0" width="88" height="50" fill="none" stroke="none" />
  <rect x="856" y="0" rx="0" ry="0" width="88" height="50" fill="none" stroke="none" />
  <rect x="944" y="0" rx="0" ry="0" width="88" height="50" fill="none" stroke="none" />
  <rect x="1032" y="0" rx="0" ry="0" width="88" height="50" fill="none" stroke="none" />
  <rect x="1120" y="0" rx="0" ry="0" width="88" height="50" fill="none" stroke="none" />
  <rect x="1208" y="0" rx="0" ry="0" width="88" height="50" fill="none" stroke="none" />
  <rect x="1296" y="0" rx="0" ry="0" width="88" height="50" fill="none" stroke="none" />
  <rect x="1384" y="0" rx="0" ry="0" width="88" height="50" fill="none" stroke="none" />
  <rect x="1472" y="0" rx="0" ry="0" width="88" height="50" fill="none" stroke="none" />
  <rect x="1560" y="0" rx="0" ry="0" width="88" height="50" fill="none" stroke="none" />
  <rect x="1648" y="0" rx="0" ry="0" width="88" height="50" fill="none" stroke="none" />
  <rect x="1736" y="0" rx="0" ry="0" width="88" height="50" fill="none" stroke="none" />
  <rect x="1824" y="0" rx="0" ry="0" width="88" height="50" fill="none" stroke="none" />
  <rect x="1912" y="0" rx="0" ry="0" width="88" height="50" fill="none" stroke="none" />
  <text x="0" y="56" font-family="JetBrains Mono" font-size="40" fill="black" dominant-baseline="hanging" text-anchor="start">Task One</text>
  <text x="0" y="168" font-family="JetBrains Mono" font-size="40" fill="black" dominant-baseline="hanging" text-anchor="start">Task Two</text>
  <text x="0" y="280" font-family="JetBrains Mono" font-size="40" fill="black" dominant-baseline="hanging" text-anchor="start">Task Three</text>
  <text x="0" y="392" font-family="JetBrains Mono" font-size="40" fill="black" dominant-baseline="hanging" text-anchor="start">Task Four</text>
  <text x="240" y="6" font-family="JetBrains Mono" font-size="40" fill="black" dominant-baseline="hanging" text-anchor="start">0</text>
  <text x="328" y="6" font-family="JetBrains Mono" font-size="40" fill="black" dominant-baseline="hanging" text-anchor="start">1</text>
  <text x="416" y="6" font-family="JetBrains Mono" font-size="40" fill="black" dominant-baseline="hanging" text-anchor="start">2</text>
  <text x="504" y="6" font-family="JetBrains Mono" font-size="40" fill="black" dominant-baseline="hanging" text-anchor="start">3</text>
  <text x="592" y="6" font-family="JetBrains Mono" font-size="40" fill="black" dominant-baseline="hanging" text-anchor="start">4</text>
  <text x="680" y="6" font-family="JetBrains Mono" font-size="40" fill="black" dominant-baseline="hanging" text-anchor="start">5</text>
  <text x="768" y="6" font-family="JetBrains Mono" font-size="40" fill="black" dominant-baseline="hanging" text-anchor="start">6</text>
  <text x="856" y="6" font-family="JetBrains Mono" font-size="40" fill="black" dominant-baseline="hanging" text-anchor="start">7</text>
  <text x="944" y="6" font-family="JetBrains Mono" font-size="40" fill="black" dominant-baseline="hanging" text-anchor="start">8</text>
  <text x="1032" y="6" font-family="JetBrains Mono" font-size="40" fill="black" dominant-baseline="hanging" text-anchor="start">9</text>
  <text x="1120" y="6" font-family="JetBrains Mono" font-size="40" fill="black" dominant-baseline="hanging" text-anchor="start">10</text>
  <text x="1208" y="6" font-family="JetBrains Mono" font-size="40" fill="black" dominant-baseline="hanging" text-anchor="start">11</text>
  <text x="1296" y="6" font-family="JetBrains Mono" font-size="40" fill="black" dominant-baseline="hanging" text-anchor="start">12</text>
  <text x="1384" y="6" font-family="JetBrains Mono" font-size="40" fill="black" dominant-baseline="hanging" text-anchor="start">13</text>
  <text x="1472" y="6" font-family="JetBrains Mono" font-size="40" fill="black" dominant-baseline="hanging" text-anchor="start">14</text>
  <text x="1560" y="6" font-family="JetBrains Mono" font-size="40" fill="black" dominant-baseline="hanging" text-anchor="start">15</text>
  <text x="1648" y="6" font-family="JetBrains Mono" font-size="40" fill="black" dominant-baseline="hanging" text-anchor="start">16</text>
  <text x="1736" y="6" font-family="JetBrains Mono" font-size="40" fill="black" dominant-baseline="hanging" text-anchor="start">17</text>
  <text x="1824" y="6" font-family="JetBrains Mono" font-size="40" fill="black" dominant-baseline="hanging" text-anchor="start">18</text>
  <text x="1912" y="6" font-family="JetBrains Mono" font-size="40" fill="black" dominant-baseline="hanging" text-anchor="start">19</text>
  <line x1="0" y1="50" x2="2000" y2="50" stroke="gray" />
  <line x1="0" y1="162" x2="2000" y2="162" stroke="gray" />
  <line x1="0" y1="274" x2="2000" y2="274" stroke="gray" />
  <line x1="0" y1="386" x2="2000" y2="386" stroke="gray" />
  <line x1="0" y1="498" x2="2000" y2="498" stroke="gray" />
  <line x1="240" y1="50" x2="240" y2="550" stroke="black" />
  <line x1="328" y1="50" x2="328" y2="550" stroke="black" />
  <line x1="416" y1="50" x2="416" y2="550" stroke="black" />
  <line x1="504" y1="50" x2="504" y2="550" stroke="black" />
  <line x1="592" y1="50" x2="592" y2="550" stroke="black" />
  <line x1="680" y1="50" x2="680" y2="550" stroke="black" />
  <line x1="768" y1="50" x2="768" y2="550" stroke="black" />
  <line x1="856" y1="50" x2="856" y2="550" stroke="black" />
  <line x1="944" y1="50" x2="944" y2="550" stroke="black" />
  <line x1="1032" y1="50" x2="1032" y2="550" stroke="black" />
  <line x1="1120" y1="50" x2="1120" y2="550" stroke="black" />
  <line x1="1208" y1="50" x2="1208" y2="550" stroke="black" />
  <line x1="1296" y1="50" x2="1296" y2="550" stroke="black" />
  <line x1="1384" y1="50" x2="1384" y2="550" stroke="black" />
  <line x1="1472" y1="50" x2="1472" y2="550" stroke="black" />
  <line x1="1560" y1="50" x2="1560" y2="550" stroke="black" />
  <line x1="1648" y1="50" x2="1648" y2="550" stroke="black" />
  <line x1="1736" y1="50" x2="1736" y2="550" stroke="black" />
  <line x1="1824" y1="50" x2="1824" y2="550" stroke="black" />
  <line x1="1912" y1="50" x2="1912" y2="550" stroke="black" />
</svg>